# MagicaVoxel @ Ephtracy

# group
o 

# material
mtllib homer_0.mtl
usemtl palette

# normals
vn -1 0 0
vn 1 0 0
vn 0 0 1
vn 0 0 -1
vn 0 -1 0
vn 0 1 0

# texcoords
vt 0.0136719 0.5
vt 0.232422 0.5
vt 0.658203 0.5
vt 0.701172 0.5
vt 0.955078 0.5
vt 0.958984 0.5

# verts
v -0.8 0.5 0.1
v -0.8 0.5 -0.1
v -0.8 0.9 0.1
v -0.8 0.9 -0.1
v -0.8 1.1 0.1
v -0.8 1.1 -0.1
v -0.7 1.1 0.1
v -0.7 1.1 -0.1
v -0.7 1.2 0.1
v -0.7 1.2 -0.1
v -0.6 1.4 0.2
v -0.6 1.4 0.1
v -0.6 1.4 -0.2
v -0.6 1.6 0.2
v -0.6 1.6 0.1
v -0.6 1.7 0
v -0.6 1.7 -0.1
v -0.6 1.8 0.1
v -0.6 1.8 0
v -0.6 1.8 -0.1
v -0.6 1.8 -0.2
v -0.6 1.9 0.1
v -0.6 1.9 0
v -0.6 1.9 -0.1
v -0.6 1.9 -0.2
v -0.6 2 0.2
v -0.6 2 -0.2
v -0.5 0 0.2
v -0.5 0 -0.1
v -0.5 0.1 0.2
v -0.5 0.1 0.1
v -0.5 0.1 -0.1
v -0.5 0.5 0.2
v -0.5 0.5 0.1
v -0.5 0.5 -0.1
v -0.5 0.5 -0.2
v -0.5 0.6 0.3
v -0.5 0.6 0.2
v -0.5 0.7 0.4
v -0.5 0.7 0.3
v -0.5 0.7 -0.2
v -0.5 1 0.4
v -0.5 1 0.3
v -0.5 1 0.1
v -0.5 1 -0.1
v -0.5 1.1 0.3
v -0.5 1.1 0.2
v -0.5 1.2 0.2
v -0.5 1.2 0.1
v -0.5 1.2 -0.1
v -0.5 1.2 -0.2
v -0.5 1.3 0.2
v -0.5 1.3 0.1
v -0.5 1.3 -0.2
v -0.5 1.4 0.3
v -0.5 1.4 0.2
v -0.5 1.4 0.1
v -0.5 1.4 -0.2
v -0.5 1.4 -0.3
v -0.5 1.6 0.3
v -0.5 1.6 0.2
v -0.5 1.7 -0.2
v -0.5 1.7 -0.3
v -0.5 1.8 -0.2
v -0.5 1.8 -0.3
v -0.5 1.9 -0.2
v -0.5 2 0.3
v -0.5 2 0.2
v -0.5 2 -0.2
v -0.5 2 -0.3
v -0.5 2.1 0.2
v -0.5 2.1 -0.2
v -0.4 1.3 0.4
v -0.4 1.3 0.2
v -0.4 1.4 0.3
v -0.4 1.4 0.2
v -0.4 1.6 0.4
v -0.4 1.6 0.3
v -0.4 1.9 0.4
v -0.4 1.9 0.3
v -0.4 2 0.4
v -0.4 2 0.3
v -0.4 2.1 0.1
v -0.4 2.1 0
v -0.4 2.1 -0.1
v -0.4 2.1 -0.2
v -0.4 2.2 0.1
v -0.4 2.2 0
v -0.4 2.2 -0.1
v -0.4 2.2 -0.2
v -0.3 1.2 0.1
v -0.3 1.2 -0.1
v -0.3 1.3 0.1
v -0.3 1.3 -0.1
v -0.1 0 0.2
v -0.1 0 -0.1
v -0.1 0.1 0.2
v -0.1 0.1 0.1
v -0.1 0.1 -0.1
v -0.1 0.5 0.1
v -0.1 0.5 -0.1
v -0.1 1.9 0.4
v -0.1 1.9 0.3
v -0.1 2 0.4
v -0.1 2 0.3
v 0.2 0.6 0.1
v 0.2 0.6 -0.1
v 0.2 0.9 0.1
v 0.2 0.9 -0.1
v 0.2 1 0.1
v 0.2 1 -0.1
v 0.3 0.5 0.1
v 0.3 0.5 -0.1
v 0.3 0.6 0.1
v 0.3 0.6 -0.1
v -0.7 0.5 0.1
v -0.7 0.5 -0.1
v -0.7 0.6 0.1
v -0.7 0.6 -0.1
v -0.6 0.6 0.1
v -0.6 0.6 -0.1
v -0.6 0.9 0.1
v -0.6 0.9 -0.1
v -0.6 1 0.1
v -0.6 1 -0.1
v -0.3 0 0.2
v -0.3 0 -0.1
v -0.3 0.1 0.2
v -0.3 0.1 0.1
v -0.3 0.1 -0.1
v -0.3 0.5 0.1
v -0.3 0.5 -0.1
v -0.3 1.9 0.4
v -0.3 1.9 0.3
v -0.3 2 0.4
v -0.3 2 0.3
v -0.1 1.2 0.1
v -0.1 1.2 -0.1
v -0.1 1.3 0.1
v -0.1 1.3 -0.1
v 0 1.3 0.4
v 0 1.3 0.2
v 0 1.4 0.3
v 0 1.4 0.2
v 0 1.6 0.4
v 0 1.6 0.3
v 0 1.9 0.4
v 0 1.9 0.3
v 0 2 0.4
v 0 2 0.3
v 0 2.1 0.1
v 0 2.1 0
v 0 2.1 -0.1
v 0 2.1 -0.2
v 0 2.2 0.1
v 0 2.2 0
v 0 2.2 -0.1
v 0 2.2 -0.2
v 0.1 0 0.2
v 0.1 0 -0.1
v 0.1 0.1 0.2
v 0.1 0.1 0.1
v 0.1 0.1 -0.1
v 0.1 0.5 0.2
v 0.1 0.5 0.1
v 0.1 0.5 -0.1
v 0.1 0.5 -0.2
v 0.1 0.6 0.3
v 0.1 0.6 0.2
v 0.1 0.7 0.4
v 0.1 0.7 0.3
v 0.1 0.7 -0.2
v 0.1 1 0.4
v 0.1 1 0.3
v 0.1 1 0.1
v 0.1 1 -0.1
v 0.1 1.1 0.3
v 0.1 1.1 0.2
v 0.1 1.2 0.2
v 0.1 1.2 0.1
v 0.1 1.2 -0.1
v 0.1 1.2 -0.2
v 0.1 1.3 0.2
v 0.1 1.3 0.1
v 0.1 1.3 -0.2
v 0.1 1.4 0.3
v 0.1 1.4 0.2
v 0.1 1.4 0.1
v 0.1 1.4 -0.2
v 0.1 1.4 -0.3
v 0.1 1.6 0.3
v 0.1 1.6 0.2
v 0.1 1.7 -0.2
v 0.1 1.8 -0.2
v 0.1 1.8 -0.3
v 0.1 1.9 -0.2
v 0.1 1.9 -0.3
v 0.1 2 0.3
v 0.1 2 0.2
v 0.1 2 -0.2
v 0.1 2 -0.3
v 0.1 2.1 0.2
v 0.1 2.1 -0.2
v 0.2 1.4 0.2
v 0.2 1.4 0.1
v 0.2 1.4 -0.2
v 0.2 1.6 0.2
v 0.2 1.6 0.1
v 0.2 1.7 0.1
v 0.2 1.7 0
v 0.2 1.7 -0.1
v 0.2 1.7 -0.2
v 0.2 1.8 0.1
v 0.2 1.8 0
v 0.2 1.8 -0.1
v 0.2 1.8 -0.2
v 0.2 1.9 0
v 0.2 1.9 -0.1
v 0.2 2 0.2
v 0.2 2 -0.2
v 0.3 1.1 0.1
v 0.3 1.1 -0.1
v 0.3 1.2 0.1
v 0.3 1.2 -0.1
v 0.4 0.5 0.1
v 0.4 0.5 -0.1
v 0.4 0.9 0.1
v 0.4 0.9 -0.1
v 0.4 1.1 0.1
v 0.4 1.1 -0.1
v -0.5 0.7 0.4
v -0.5 1 0.4
v -0.4 1.3 0.4
v -0.4 1.6 0.4
v -0.4 1.9 0.4
v -0.4 2 0.4
v -0.3 1.9 0.4
v -0.3 2 0.4
v -0.1 1.9 0.4
v -0.1 2 0.4
v 0 1.3 0.4
v 0 1.6 0.4
v 0 1.9 0.4
v 0 2 0.4
v 0.1 0.7 0.4
v 0.1 1 0.4
v -0.5 0.6 0.3
v -0.5 0.7 0.3
v -0.5 1 0.3
v -0.5 1.1 0.3
v -0.5 1.4 0.3
v -0.5 1.6 0.3
v -0.5 2 0.3
v -0.4 1.4 0.3
v -0.4 1.6 0.3
v -0.4 1.9 0.3
v -0.4 2 0.3
v -0.3 1.6 0.3
v -0.3 1.9 0.3
v -0.3 2 0.3
v -0.1 1.6 0.3
v -0.1 1.9 0.3
v -0.1 2 0.3
v 0 1.4 0.3
v 0 1.6 0.3
v 0 1.9 0.3
v 0 2 0.3
v 0.1 0.6 0.3
v 0.1 0.7 0.3
v 0.1 1 0.3
v 0.1 1.1 0.3
v 0.1 1.4 0.3
v 0.1 1.6 0.3
v 0.1 2 0.3
v -0.6 1.4 0.2
v -0.6 1.6 0.2
v -0.6 2 0.2
v -0.5 0 0.2
v -0.5 0.1 0.2
v -0.5 0.5 0.2
v -0.5 0.6 0.2
v -0.5 1.1 0.2
v -0.5 1.2 0.2
v -0.5 1.3 0.2
v -0.5 1.4 0.2
v -0.5 1.6 0.2
v -0.5 2 0.2
v -0.5 2.1 0.2
v -0.4 1.3 0.2
v -0.4 1.4 0.2
v -0.3 0 0.2
v -0.3 0.1 0.2
v -0.3 1.1 0.2
v -0.3 1.2 0.2
v -0.1 0 0.2
v -0.1 0.1 0.2
v -0.1 1.1 0.2
v -0.1 1.2 0.2
v 0 1.3 0.2
v 0 1.4 0.2
v 0.1 0 0.2
v 0.1 0.1 0.2
v 0.1 0.5 0.2
v 0.1 0.6 0.2
v 0.1 1.1 0.2
v 0.1 1.2 0.2
v 0.1 1.3 0.2
v 0.1 1.4 0.2
v 0.1 1.6 0.2
v 0.1 2 0.2
v 0.1 2.1 0.2
v 0.2 1.4 0.2
v 0.2 1.6 0.2
v 0.2 2 0.2
v -0.8 0.5 0.1
v -0.8 0.9 0.1
v -0.8 1.1 0.1
v -0.7 0.5 0.1
v -0.7 0.6 0.1
v -0.7 1.1 0.1
v -0.7 1.2 0.1
v -0.6 0.6 0.1
v -0.6 0.9 0.1
v -0.6 1 0.1
v -0.5 0.1 0.1
v -0.5 0.5 0.1
v -0.5 1 0.1
v -0.5 1.2 0.1
v -0.4 2.1 0.1
v -0.4 2.2 0.1
v -0.3 0.1 0.1
v -0.3 0.5 0.1
v -0.3 1.2 0.1
v -0.3 1.3 0.1
v -0.1 0.1 0.1
v -0.1 0.5 0.1
v -0.1 1.2 0.1
v -0.1 1.3 0.1
v 0 2.1 0.1
v 0 2.2 0.1
v 0.1 0.1 0.1
v 0.1 0.5 0.1
v 0.1 1 0.1
v 0.1 1.2 0.1
v 0.2 0.6 0.1
v 0.2 0.9 0.1
v 0.2 1 0.1
v 0.3 0.5 0.1
v 0.3 0.6 0.1
v 0.3 1.1 0.1
v 0.3 1.2 0.1
v 0.4 0.5 0.1
v 0.4 0.9 0.1
v 0.4 1.1 0.1
v -0.4 2.1 -0.1
v -0.4 2.2 -0.1
v 0 2.1 -0.1
v 0 2.2 -0.1
v -0.4 2.1 0
v -0.4 2.2 0
v 0 2.1 0
v 0 2.2 0
v -0.8 0.5 -0.1
v -0.8 0.9 -0.1
v -0.8 1.1 -0.1
v -0.7 0.5 -0.1
v -0.7 0.6 -0.1
v -0.7 1.1 -0.1
v -0.7 1.2 -0.1
v -0.6 0.6 -0.1
v -0.6 0.9 -0.1
v -0.6 1 -0.1
v -0.5 0 -0.1
v -0.5 0.1 -0.1
v -0.5 0.5 -0.1
v -0.5 1 -0.1
v -0.5 1.2 -0.1
v -0.3 0 -0.1
v -0.3 0.1 -0.1
v -0.3 0.5 -0.1
v -0.3 1.2 -0.1
v -0.3 1.3 -0.1
v -0.1 0 -0.1
v -0.1 0.1 -0.1
v -0.1 0.5 -0.1
v -0.1 1.2 -0.1
v -0.1 1.3 -0.1
v 0.1 0 -0.1
v 0.1 0.1 -0.1
v 0.1 0.5 -0.1
v 0.1 1 -0.1
v 0.1 1.2 -0.1
v 0.2 0.6 -0.1
v 0.2 0.9 -0.1
v 0.2 1 -0.1
v 0.3 0.5 -0.1
v 0.3 0.6 -0.1
v 0.3 1.1 -0.1
v 0.3 1.2 -0.1
v 0.4 0.5 -0.1
v 0.4 0.9 -0.1
v 0.4 1.1 -0.1
v -0.6 1.4 -0.2
v -0.6 1.8 -0.2
v -0.6 1.9 -0.2
v -0.6 2 -0.2
v -0.5 0.5 -0.2
v -0.5 0.7 -0.2
v -0.5 1.2 -0.2
v -0.5 1.3 -0.2
v -0.5 1.4 -0.2
v -0.5 1.7 -0.2
v -0.5 1.8 -0.2
v -0.5 1.9 -0.2
v -0.5 2 -0.2
v -0.5 2.1 -0.2
v -0.4 2.1 -0.2
v -0.4 2.2 -0.2
v 0 2.1 -0.2
v 0 2.2 -0.2
v 0.1 0.5 -0.2
v 0.1 0.7 -0.2
v 0.1 1.2 -0.2
v 0.1 1.3 -0.2
v 0.1 1.4 -0.2
v 0.1 1.7 -0.2
v 0.1 1.8 -0.2
v 0.1 1.9 -0.2
v 0.1 2 -0.2
v 0.1 2.1 -0.2
v 0.2 1.4 -0.2
v 0.2 1.7 -0.2
v 0.2 1.8 -0.2
v 0.2 2 -0.2
v -0.5 1.4 -0.3
v -0.5 1.7 -0.3
v -0.5 1.8 -0.3
v -0.5 2 -0.3
v -0.4 1.7 -0.3
v -0.4 1.8 -0.3
v -0.4 1.9 -0.3
v -0.3 1.7 -0.3
v -0.3 1.8 -0.3
v -0.3 1.9 -0.3
v -0.2 1.7 -0.3
v -0.2 1.8 -0.3
v -0.2 1.9 -0.3
v -0.1 1.7 -0.3
v -0.1 1.8 -0.3
v -0.1 1.9 -0.3
v 0 1.7 -0.3
v 0 1.8 -0.3
v 0 1.9 -0.3
v 0.1 1.4 -0.3
v 0.1 1.8 -0.3
v 0.1 1.9 -0.3
v 0.1 2 -0.3
v -0.5 0 0.2
v -0.3 0 0.2
v -0.1 0 0.2
v 0.1 0 0.2
v -0.5 0 -0.1
v -0.3 0 -0.1
v -0.1 0 -0.1
v 0.1 0 -0.1
v -0.5 0.5 0.2
v 0.1 0.5 0.2
v -0.8 0.5 0.1
v -0.7 0.5 0.1
v -0.5 0.5 0.1
v -0.3 0.5 0.1
v -0.1 0.5 0.1
v 0.1 0.5 0.1
v 0.3 0.5 0.1
v 0.4 0.5 0.1
v -0.8 0.5 -0.1
v -0.7 0.5 -0.1
v -0.5 0.5 -0.1
v -0.3 0.5 -0.1
v -0.1 0.5 -0.1
v 0.1 0.5 -0.1
v 0.3 0.5 -0.1
v 0.4 0.5 -0.1
v -0.5 0.5 -0.2
v 0.1 0.5 -0.2
v -0.5 0.6 0.3
v 0.1 0.6 0.3
v -0.5 0.6 0.2
v 0.1 0.6 0.2
v -0.7 0.6 0.1
v -0.6 0.6 0.1
v 0.2 0.6 0.1
v 0.3 0.6 0.1
v -0.7 0.6 -0.1
v -0.6 0.6 -0.1
v 0.2 0.6 -0.1
v 0.3 0.6 -0.1
v -0.5 0.7 0.4
v 0.1 0.7 0.4
v -0.5 0.7 0.3
v 0.1 0.7 0.3
v -0.6 1 0.1
v -0.5 1 0.1
v 0.1 1 0.1
v 0.2 1 0.1
v -0.6 1 -0.1
v -0.5 1 -0.1
v 0.1 1 -0.1
v 0.2 1 -0.1
v -0.4 1.3 0.4
v 0 1.3 0.4
v -0.5 1.3 0.2
v -0.4 1.3 0.2
v 0 1.3 0.2
v 0.1 1.3 0.2
v -0.5 1.3 0.1
v -0.3 1.3 0.1
v -0.1 1.3 0.1
v 0.1 1.3 0.1
v -0.3 1.3 -0.1
v -0.1 1.3 -0.1
v -0.5 1.3 -0.2
v 0.1 1.3 -0.2
v -0.5 1.4 0.3
v -0.4 1.4 0.3
v 0 1.4 0.3
v 0.1 1.4 0.3
v -0.6 1.4 0.2
v -0.5 1.4 0.2
v -0.4 1.4 0.2
v 0 1.4 0.2
v 0.1 1.4 0.2
v 0.2 1.4 0.2
v -0.6 1.4 0.1
v -0.5 1.4 0.1
v 0.1 1.4 0.1
v 0.2 1.4 0.1
v -0.6 1.4 -0.2
v -0.5 1.4 -0.2
v 0.1 1.4 -0.2
v 0.2 1.4 -0.2
v -0.5 1.4 -0.3
v 0.1 1.4 -0.3
v -0.4 1.9 0.4
v -0.3 1.9 0.4
v -0.1 1.9 0.4
v 0 1.9 0.4
v -0.4 1.9 0.3
v -0.3 1.9 0.3
v -0.1 1.9 0.3
v 0 1.9 0.3
v -0.5 0.1 0.2
v -0.3 0.1 0.2
v -0.1 0.1 0.2
v 0.1 0.1 0.2
v -0.5 0.1 0.1
v -0.3 0.1 0.1
v -0.1 0.1 0.1
v 0.1 0.1 0.1
v -0.5 1 0.4
v 0.1 1 0.4
v -0.5 1 0.3
v 0.1 1 0.3
v -0.5 1.1 0.3
v 0.1 1.1 0.3
v -0.5 1.1 0.2
v -0.3 1.1 0.2
v -0.1 1.1 0.2
v 0.1 1.1 0.2
v -0.8 1.1 0.1
v -0.7 1.1 0.1
v 0.3 1.1 0.1
v 0.4 1.1 0.1
v -0.8 1.1 -0.1
v -0.7 1.1 -0.1
v 0.3 1.1 -0.1
v 0.4 1.1 -0.1
v -0.5 1.2 0.2
v -0.3 1.2 0.2
v -0.1 1.2 0.2
v 0.1 1.2 0.2
v -0.7 1.2 0.1
v -0.5 1.2 0.1
v -0.3 1.2 0.1
v -0.1 1.2 0.1
v 0.1 1.2 0.1
v 0.3 1.2 0.1
v -0.7 1.2 -0.1
v -0.5 1.2 -0.1
v -0.3 1.2 -0.1
v -0.1 1.2 -0.1
v 0.1 1.2 -0.1
v 0.3 1.2 -0.1
v -0.5 1.2 -0.2
v 0.1 1.2 -0.2
v -0.4 1.6 0.4
v 0 1.6 0.4
v -0.4 1.6 0.3
v -0.3 1.6 0.3
v -0.1 1.6 0.3
v 0 1.6 0.3
v -0.4 2 0.4
v -0.3 2 0.4
v -0.1 2 0.4
v 0 2 0.4
v -0.5 2 0.3
v -0.4 2 0.3
v -0.3 2 0.3
v -0.1 2 0.3
v 0 2 0.3
v 0.1 2 0.3
v -0.6 2 0.2
v -0.5 2 0.2
v 0.1 2 0.2
v 0.2 2 0.2
v -0.6 2 -0.2
v -0.5 2 -0.2
v 0.1 2 -0.2
v 0.2 2 -0.2
v -0.5 2 -0.3
v 0.1 2 -0.3
v -0.5 2.1 0.2
v 0.1 2.1 0.2
v -0.4 2.1 0.1
v 0 2.1 0.1
v -0.4 2.1 0
v 0 2.1 0
v -0.4 2.1 -0.1
v 0 2.1 -0.1
v -0.5 2.1 -0.2
v -0.4 2.1 -0.2
v 0 2.1 -0.2
v 0.1 2.1 -0.2
v -0.4 2.2 0.1
v 0 2.2 0.1
v -0.4 2.2 0
v 0 2.2 0
v -0.4 2.2 -0.1
v 0 2.2 -0.1
v -0.4 2.2 -0.2
v 0 2.2 -0.2

# faces
f 3/1/1 2/1/1 1/1/1
f 4/1/1 2/1/1 3/1/1
f 5/6/1 4/6/1 3/6/1
f 6/6/1 4/6/1 5/6/1
f 9/6/1 8/6/1 7/6/1
f 10/6/1 8/6/1 9/6/1
f 14/2/1 12/2/1 11/2/1
f 15/1/1 13/1/1 12/1/1
f 15/2/1 12/2/1 14/2/1
f 16/1/1 15/1/1 14/1/1
f 16/1/1 13/1/1 15/1/1
f 17/1/1 13/1/1 16/1/1
f 18/1/1 16/1/1 14/1/1
f 19/5/1 17/5/1 16/5/1
f 19/1/1 16/1/1 18/1/1
f 20/1/1 13/1/1 17/1/1
f 20/5/1 17/5/1 19/5/1
f 21/1/1 13/1/1 20/1/1
f 22/5/1 19/5/1 18/5/1
f 22/1/1 18/1/1 14/1/1
f 23/1/1 20/1/1 19/1/1
f 23/5/1 19/5/1 22/5/1
f 24/5/1 21/5/1 20/5/1
f 24/1/1 20/1/1 23/1/1
f 25/5/1 21/5/1 24/5/1
f 26/1/1 23/1/1 22/1/1
f 26/1/1 22/1/1 14/1/1
f 26/1/1 25/1/1 24/1/1
f 26/1/1 24/1/1 23/1/1
f 27/1/1 25/1/1 26/1/1
f 30/4/1 29/4/1 28/4/1
f 31/4/1 29/4/1 30/4/1
f 32/4/1 29/4/1 31/4/1
f 34/3/1 32/3/1 31/3/1
f 35/3/1 32/3/1 34/3/1
f 38/3/1 35/3/1 34/3/1
f 38/3/1 36/3/1 35/3/1
f 38/3/1 34/3/1 33/3/1
f 40/3/1 38/3/1 37/3/1
f 41/3/1 36/3/1 38/3/1
f 41/3/1 38/3/1 40/3/1
f 42/6/1 40/6/1 39/6/1
f 42/6/1 41/6/1 40/6/1
f 43/6/1 41/6/1 42/6/1
f 44/6/1 41/6/1 43/6/1
f 45/6/1 41/6/1 44/6/1
f 46/6/1 44/6/1 43/6/1
f 47/6/1 44/6/1 46/6/1
f 48/6/1 44/6/1 47/6/1
f 49/6/1 44/6/1 48/6/1
f 50/6/1 41/6/1 45/6/1
f 51/6/1 41/6/1 50/6/1
f 56/2/1 53/2/1 52/2/1
f 57/1/1 54/1/1 53/1/1
f 57/2/1 53/2/1 56/2/1
f 58/1/1 54/1/1 57/1/1
f 60/2/1 56/2/1 55/2/1
f 61/2/1 56/2/1 60/2/1
f 62/1/1 59/1/1 58/1/1
f 63/1/1 59/1/1 62/1/1
f 64/5/1 63/5/1 62/5/1
f 65/5/1 63/5/1 64/5/1
f 66/1/1 65/1/1 64/1/1
f 67/1/1 61/1/1 60/1/1
f 68/1/1 61/1/1 67/1/1
f 69/1/1 65/1/1 66/1/1
f 70/1/1 65/1/1 69/1/1
f 71/1/1 69/1/1 68/1/1
f 72/1/1 69/1/1 71/1/1
f 75/2/1 74/2/1 73/2/1
f 76/2/1 74/2/1 75/2/1
f 77/2/1 75/2/1 73/2/1
f 78/2/1 75/2/1 77/2/1
f 81/1/1 80/1/1 79/1/1
f 82/1/1 80/1/1 81/1/1
f 87/5/1 84/5/1 83/5/1
f 88/5/1 84/5/1 87/5/1
f 89/5/1 86/5/1 85/5/1
f 90/5/1 86/5/1 89/5/1
f 93/1/1 92/1/1 91/1/1
f 94/1/1 92/1/1 93/1/1
f 97/4/1 96/4/1 95/4/1
f 98/4/1 96/4/1 97/4/1
f 99/4/1 96/4/1 98/4/1
f 100/3/1 99/3/1 98/3/1
f 101/3/1 99/3/1 100/3/1
f 104/1/1 103/1/1 102/1/1
f 105/1/1 103/1/1 104/1/1
f 108/1/1 107/1/1 106/1/1
f 109/1/1 107/1/1 108/1/1
f 110/6/1 109/6/1 108/6/1
f 111/6/1 109/6/1 110/6/1
f 114/1/1 113/1/1 112/1/1
f 115/1/1 113/1/1 114/1/1
f 116/1/2 117/1/2 118/1/2
f 118/1/2 117/1/2 119/1/2
f 120/1/2 121/1/2 122/1/2
f 122/1/2 121/1/2 123/1/2
f 122/6/2 123/6/2 124/6/2
f 124/6/2 123/6/2 125/6/2
f 126/4/2 127/4/2 128/4/2
f 128/4/2 127/4/2 129/4/2
f 129/4/2 127/4/2 130/4/2
f 129/3/2 130/3/2 131/3/2
f 131/3/2 130/3/2 132/3/2
f 133/1/2 134/1/2 135/1/2
f 135/1/2 134/1/2 136/1/2
f 137/1/2 138/1/2 139/1/2
f 139/1/2 138/1/2 140/1/2
f 141/2/2 142/2/2 143/2/2
f 143/2/2 142/2/2 144/2/2
f 141/2/2 143/2/2 145/2/2
f 145/2/2 143/2/2 146/2/2
f 147/1/2 148/1/2 149/1/2
f 149/1/2 148/1/2 150/1/2
f 151/5/2 152/5/2 155/5/2
f 155/5/2 152/5/2 156/5/2
f 153/5/2 154/5/2 157/5/2
f 157/5/2 154/5/2 158/5/2
f 159/4/2 160/4/2 161/4/2
f 161/4/2 160/4/2 162/4/2
f 162/4/2 160/4/2 163/4/2
f 162/3/2 163/3/2 165/3/2
f 165/3/2 163/3/2 166/3/2
f 165/3/2 166/3/2 169/3/2
f 166/3/2 167/3/2 169/3/2
f 164/3/2 165/3/2 169/3/2
f 168/3/2 169/3/2 171/3/2
f 169/3/2 167/3/2 172/3/2
f 171/3/2 169/3/2 172/3/2
f 170/6/2 171/6/2 173/6/2
f 171/6/2 172/6/2 173/6/2
f 173/6/2 172/6/2 174/6/2
f 174/6/2 172/6/2 175/6/2
f 175/6/2 172/6/2 176/6/2
f 174/6/2 175/6/2 177/6/2
f 177/6/2 175/6/2 178/6/2
f 178/6/2 175/6/2 179/6/2
f 179/6/2 175/6/2 180/6/2
f 176/6/2 172/6/2 181/6/2
f 181/6/2 172/6/2 182/6/2
f 183/2/2 184/2/2 187/2/2
f 184/1/2 185/1/2 188/1/2
f 187/2/2 184/2/2 188/2/2
f 188/1/2 185/1/2 189/1/2
f 186/2/2 187/2/2 191/2/2
f 191/2/2 187/2/2 192/2/2
f 189/1/2 190/1/2 193/1/2
f 193/1/2 190/1/2 194/1/2
f 194/1/2 190/1/2 195/1/2
f 194/5/2 195/5/2 196/5/2
f 196/5/2 195/5/2 197/5/2
f 191/1/2 192/1/2 198/1/2
f 198/1/2 192/1/2 199/1/2
f 196/1/2 197/1/2 200/1/2
f 200/1/2 197/1/2 201/1/2
f 199/1/2 200/1/2 202/1/2
f 202/1/2 200/1/2 203/1/2
f 204/2/2 205/2/2 207/2/2
f 205/1/2 206/1/2 208/1/2
f 207/2/2 205/2/2 208/2/2
f 207/1/2 208/1/2 209/1/2
f 208/1/2 206/1/2 209/1/2
f 209/1/2 206/1/2 210/1/2
f 210/1/2 206/1/2 211/1/2
f 211/1/2 206/1/2 212/1/2
f 207/1/2 209/1/2 213/1/2
f 209/5/2 210/5/2 213/5/2
f 210/1/2 211/1/2 214/1/2
f 213/5/2 210/5/2 214/5/2
f 211/5/2 212/5/2 215/5/2
f 214/1/2 211/1/2 215/1/2
f 215/5/2 212/5/2 216/5/2
f 213/1/2 214/1/2 217/1/2
f 214/5/2 215/5/2 217/5/2
f 215/1/2 216/1/2 218/1/2
f 217/5/2 215/5/2 218/5/2
f 207/1/2 213/1/2 219/1/2
f 213/1/2 217/1/2 219/1/2
f 217/1/2 218/1/2 219/1/2
f 218/1/2 216/1/2 220/1/2
f 219/1/2 218/1/2 220/1/2
f 221/6/2 222/6/2 223/6/2
f 223/6/2 222/6/2 224/6/2
f 225/1/2 226/1/2 227/1/2
f 227/1/2 226/1/2 228/1/2
f 227/6/2 228/6/2 229/6/2
f 229/6/2 228/6/2 230/6/2
f 237/1/3 236/1/3 235/1/3
f 238/1/3 236/1/3 237/1/3
f 241/2/3 234/2/3 233/2/3
f 242/2/3 234/2/3 241/2/3
f 243/1/3 240/1/3 239/1/3
f 244/1/3 240/1/3 243/1/3
f 245/6/3 232/6/3 231/6/3
f 246/6/3 232/6/3 245/6/3
f 254/2/3 252/2/3 251/2/3
f 255/1/3 253/1/3 252/1/3
f 255/2/3 252/2/3 254/2/3
f 256/1/3 253/1/3 255/1/3
f 257/1/3 253/1/3 256/1/3
f 258/5/3 256/5/3 255/5/3
f 259/5/3 256/5/3 258/5/3
f 261/1/3 259/1/3 258/1/3
f 261/1/3 260/1/3 259/1/3
f 262/1/3 260/1/3 261/1/3
f 263/1/3 260/1/3 262/1/3
f 265/5/3 262/5/3 261/5/3
f 266/5/3 262/5/3 265/5/3
f 268/3/3 248/3/3 247/3/3
f 269/3/3 248/3/3 268/3/3
f 270/6/3 250/6/3 249/6/3
f 271/6/3 250/6/3 270/6/3
f 272/2/3 265/2/3 264/2/3
f 273/1/3 267/1/3 266/1/3
f 273/2/3 265/2/3 272/2/3
f 273/1/3 266/1/3 265/1/3
f 274/1/3 267/1/3 273/1/3
f 285/2/3 276/2/3 275/2/3
f 286/1/3 277/1/3 276/1/3
f 286/2/3 276/2/3 285/2/3
f 287/1/3 277/1/3 286/1/3
f 289/2/3 285/2/3 284/2/3
f 290/2/3 285/2/3 289/2/3
f 291/4/3 279/4/3 278/4/3
f 292/4/3 279/4/3 291/4/3
f 293/6/3 283/6/3 282/6/3
f 294/6/3 283/6/3 293/6/3
f 297/1/3 294/1/3 293/1/3
f 298/1/3 294/1/3 297/1/3
f 301/4/3 296/4/3 295/4/3
f 302/4/3 296/4/3 301/4/3
f 303/3/3 281/3/3 280/3/3
f 304/3/3 281/3/3 303/3/3
f 305/6/3 298/6/3 297/6/3
f 306/6/3 298/6/3 305/6/3
f 307/2/3 300/2/3 299/2/3
f 308/2/3 300/2/3 307/2/3
f 310/1/3 288/1/3 287/1/3
f 311/1/3 288/1/3 310/1/3
f 312/2/3 309/2/3 308/2/3
f 313/1/3 310/1/3 309/1/3
f 313/2/3 309/2/3 312/2/3
f 314/1/3 310/1/3 313/1/3
f 318/1/3 316/1/3 315/1/3
f 319/1/3 316/1/3 318/1/3
f 320/6/3 317/6/3 316/6/3
f 322/1/3 316/1/3 319/1/3
f 323/6/3 321/6/3 320/6/3
f 323/1/3 316/1/3 322/1/3
f 323/6/3 320/6/3 316/6/3
f 324/6/3 321/6/3 323/6/3
f 327/6/3 321/6/3 324/6/3
f 328/6/3 321/6/3 327/6/3
f 331/3/3 326/3/3 325/3/3
f 332/3/3 326/3/3 331/3/3
f 337/1/3 334/1/3 333/1/3
f 338/1/3 334/1/3 337/1/3
f 339/5/3 330/5/3 329/5/3
f 340/5/3 330/5/3 339/5/3
f 341/3/3 336/3/3 335/3/3
f 342/3/3 336/3/3 341/3/3
f 347/6/3 344/6/3 343/6/3
f 349/1/3 346/1/3 345/1/3
f 350/6/3 347/6/3 346/6/3
f 350/6/3 344/6/3 347/6/3
f 351/6/3 344/6/3 350/6/3
f 352/1/3 349/1/3 348/1/3
f 353/1/3 346/1/3 349/1/3
f 353/1/3 349/1/3 352/1/3
f 353/6/3 350/6/3 346/6/3
f 354/6/3 350/6/3 353/6/3
f 357/5/3 356/5/3 355/5/3
f 358/5/3 356/5/3 357/5/3
f 359/5/4 360/5/4 361/5/4
f 361/5/4 360/5/4 362/5/4
f 363/1/4 364/1/4 366/1/4
f 366/1/4 364/1/4 367/1/4
f 364/6/4 365/6/4 368/6/4
f 367/1/4 364/1/4 370/1/4
f 368/6/4 369/6/4 371/6/4
f 370/1/4 364/1/4 371/1/4
f 364/6/4 368/6/4 371/6/4
f 371/6/4 369/6/4 372/6/4
f 372/6/4 369/6/4 376/6/4
f 376/6/4 369/6/4 377/6/4
f 373/4/4 374/4/4 378/4/4
f 374/3/4 375/3/4 379/3/4
f 378/4/4 374/4/4 379/4/4
f 379/3/4 375/3/4 380/3/4
f 381/1/4 382/1/4 386/1/4
f 386/1/4 382/1/4 387/1/4
f 383/4/4 384/4/4 388/4/4
f 384/3/4 385/3/4 389/3/4
f 388/4/4 384/4/4 389/4/4
f 389/3/4 385/3/4 390/3/4
f 391/6/4 392/6/4 395/6/4
f 393/1/4 394/1/4 397/1/4
f 394/6/4 395/6/4 398/6/4
f 395/6/4 392/6/4 398/6/4
f 398/6/4 392/6/4 399/6/4
f 396/1/4 397/1/4 400/1/4
f 397/1/4 394/1/4 401/1/4
f 400/1/4 397/1/4 401/1/4
f 394/6/4 398/6/4 401/6/4
f 401/6/4 398/6/4 402/6/4
f 403/1/4 404/1/4 411/1/4
f 411/1/4 404/1/4 412/1/4
f 404/5/4 405/5/4 413/5/4
f 412/1/4 404/1/4 413/1/4
f 405/1/4 406/1/4 414/1/4
f 413/5/4 405/5/4 414/5/4
f 414/1/4 406/1/4 415/1/4
f 415/1/4 416/1/4 417/1/4
f 415/1/4 417/1/4 419/1/4
f 417/5/4 418/5/4 419/5/4
f 419/5/4 418/5/4 420/5/4
f 407/3/4 408/3/4 421/3/4
f 408/6/4 409/6/4 422/6/4
f 421/3/4 408/3/4 422/3/4
f 422/6/4 409/6/4 423/6/4
f 410/1/4 411/1/4 424/1/4
f 424/1/4 411/1/4 425/1/4
f 415/1/4 419/1/4 429/1/4
f 429/1/4 419/1/4 430/1/4
f 425/1/4 426/1/4 431/1/4
f 426/5/4 427/5/4 432/5/4
f 431/1/4 426/1/4 432/1/4
f 427/1/4 428/1/4 433/1/4
f 432/5/4 427/5/4 433/5/4
f 428/1/4 429/1/4 433/1/4
f 433/1/4 429/1/4 434/1/4
f 435/1/4 436/1/4 439/1/4
f 436/5/4 437/5/4 439/5/4
f 437/1/4 438/1/4 440/1/4
f 439/5/4 437/5/4 440/5/4
f 440/1/4 438/1/4 441/1/4
f 435/1/4 439/1/4 442/1/4
f 439/1/4 440/1/4 442/1/4
f 440/5/4 441/5/4 443/5/4
f 442/1/4 440/1/4 443/1/4
f 441/1/4 438/1/4 444/1/4
f 443/5/4 441/5/4 444/5/4
f 442/5/4 443/5/4 445/5/4
f 435/1/4 442/1/4 445/1/4
f 443/1/4 444/1/4 446/1/4
f 445/5/4 443/5/4 446/5/4
f 444/1/4 438/1/4 447/1/4
f 446/1/4 444/1/4 447/1/4
f 445/1/4 446/1/4 448/1/4
f 435/1/4 445/1/4 448/1/4
f 446/5/4 447/5/4 449/5/4
f 448/1/4 446/1/4 449/1/4
f 447/1/4 438/1/4 450/1/4
f 449/5/4 447/5/4 450/5/4
f 448/5/4 449/5/4 451/5/4
f 435/1/4 448/1/4 451/1/4
f 449/1/4 450/1/4 452/1/4
f 451/5/4 449/5/4 452/5/4
f 450/1/4 438/1/4 453/1/4
f 452/1/4 450/1/4 453/1/4
f 451/1/4 452/1/4 454/1/4
f 435/1/4 451/1/4 454/1/4
f 452/5/4 453/5/4 455/5/4
f 454/1/4 452/1/4 455/1/4
f 453/1/4 438/1/4 456/1/4
f 455/5/4 453/5/4 456/5/4
f 456/1/4 438/1/4 457/1/4
f 462/4/5 459/4/5 458/4/5
f 463/4/5 459/4/5 462/4/5
f 464/4/5 461/4/5 460/4/5
f 465/4/5 461/4/5 464/4/5
f 470/3/5 467/3/5 466/3/5
f 471/3/5 467/3/5 470/3/5
f 472/3/5 467/3/5 471/3/5
f 473/3/5 467/3/5 472/3/5
f 476/1/5 469/1/5 468/1/5
f 477/1/5 469/1/5 476/1/5
f 479/3/5 472/3/5 471/3/5
f 480/3/5 472/3/5 479/3/5
f 482/1/5 475/1/5 474/1/5
f 483/1/5 475/1/5 482/1/5
f 484/3/5 481/3/5 480/3/5
f 484/3/5 479/3/5 478/3/5
f 484/3/5 480/3/5 479/3/5
f 485/3/5 481/3/5 484/3/5
f 488/3/5 487/3/5 486/3/5
f 489/3/5 487/3/5 488/3/5
f 494/1/5 491/1/5 490/1/5
f 495/1/5 491/1/5 494/1/5
f 496/1/5 493/1/5 492/1/5
f 497/1/5 493/1/5 496/1/5
f 500/6/5 499/6/5 498/6/5
f 501/6/5 499/6/5 500/6/5
f 506/6/5 503/6/5 502/6/5
f 507/6/5 503/6/5 506/6/5
f 508/6/5 505/6/5 504/6/5
f 509/6/5 505/6/5 508/6/5
f 513/2/5 511/2/5 510/2/5
f 514/2/5 511/2/5 513/2/5
f 516/2/5 513/2/5 512/2/5
f 516/2/5 515/2/5 514/2/5
f 516/2/5 514/2/5 513/2/5
f 517/2/5 515/2/5 516/2/5
f 518/2/5 515/2/5 517/2/5
f 519/2/5 515/2/5 518/2/5
f 520/1/5 517/1/5 516/1/5
f 521/1/5 519/1/5 518/1/5
f 522/1/5 520/1/5 516/1/5
f 522/1/5 521/1/5 520/1/5
f 523/1/5 519/1/5 521/1/5
f 523/1/5 521/1/5 522/1/5
f 529/2/5 525/2/5 524/2/5
f 530/2/5 525/2/5 529/2/5
f 531/2/5 527/2/5 526/2/5
f 532/2/5 527/2/5 531/2/5
f 534/2/5 529/2/5 528/2/5
f 535/2/5 529/2/5 534/2/5
f 536/2/5 533/2/5 532/2/5
f 537/2/5 533/2/5 536/2/5
f 538/1/5 535/1/5 534/1/5
f 539/1/5 535/1/5 538/1/5
f 540/1/5 537/1/5 536/1/5
f 541/1/5 537/1/5 540/1/5
f 542/1/5 540/1/5 539/1/5
f 543/1/5 540/1/5 542/1/5
f 548/1/5 545/1/5 544/1/5
f 549/1/5 545/1/5 548/1/5
f 550/1/5 547/1/5 546/1/5
f 551/1/5 547/1/5 550/1/5
f 552/4/6 553/4/6 556/4/6
f 556/4/6 553/4/6 557/4/6
f 554/4/6 555/4/6 558/4/6
f 558/4/6 555/4/6 559/4/6
f 560/6/6 561/6/6 562/6/6
f 562/6/6 561/6/6 563/6/6
f 564/6/6 565/6/6 566/6/6
f 566/6/6 565/6/6 567/6/6
f 567/6/6 565/6/6 568/6/6
f 568/6/6 565/6/6 569/6/6
f 570/6/6 571/6/6 574/6/6
f 574/6/6 571/6/6 575/6/6
f 572/6/6 573/6/6 576/6/6
f 576/6/6 573/6/6 577/6/6
f 578/6/6 579/6/6 583/6/6
f 579/1/6 580/1/6 584/1/6
f 583/6/6 579/6/6 584/6/6
f 580/6/6 581/6/6 585/6/6
f 584/1/6 580/1/6 585/1/6
f 585/6/6 581/6/6 586/6/6
f 583/6/6 584/6/6 588/6/6
f 582/6/6 583/6/6 588/6/6
f 588/6/6 584/6/6 589/6/6
f 589/6/6 584/6/6 590/6/6
f 586/6/6 587/6/6 591/6/6
f 585/6/6 586/6/6 591/6/6
f 591/6/6 587/6/6 592/6/6
f 592/6/6 587/6/6 593/6/6
f 589/6/6 590/6/6 594/6/6
f 591/6/6 592/6/6 594/6/6
f 590/6/6 591/6/6 594/6/6
f 594/6/6 592/6/6 595/6/6
f 596/2/6 597/2/6 598/2/6
f 598/2/6 597/2/6 599/2/6
f 599/2/6 597/2/6 600/2/6
f 600/2/6 597/2/6 601/2/6
f 602/1/6 603/1/6 607/1/6
f 607/1/6 603/1/6 608/1/6
f 604/1/6 605/1/6 609/1/6
f 609/1/6 605/1/6 610/1/6
f 607/1/6 608/1/6 613/1/6
f 610/1/6 611/1/6 613/1/6
f 609/1/6 610/1/6 613/1/6
f 608/1/6 609/1/6 613/1/6
f 606/1/6 607/1/6 613/1/6
f 613/1/6 611/1/6 614/1/6
f 612/1/6 613/1/6 616/1/6
f 616/1/6 613/1/6 617/1/6
f 614/1/6 615/1/6 618/1/6
f 618/1/6 615/1/6 619/1/6
f 617/1/6 618/1/6 620/1/6
f 620/1/6 618/1/6 621/1/6
f 622/1/6 623/1/6 624/1/6
f 624/1/6 623/1/6 625/1/6
f 622/1/6 624/1/6 626/1/6
f 625/1/6 623/1/6 627/1/6
f 622/1/6 626/1/6 628/1/6
f 626/1/6 627/1/6 628/1/6
f 627/1/6 623/1/6 629/1/6
f 628/1/6 627/1/6 629/1/6
f 622/1/6 628/1/6 630/1/6
f 630/1/6 628/1/6 631/1/6
f 629/1/6 623/1/6 632/1/6
f 632/1/6 623/1/6 633/1/6
f 634/5/6 635/5/6 636/5/6
f 636/5/6 635/5/6 637/5/6
f 638/5/6 639/5/6 640/5/6
f 640/5/6 639/5/6 641/5/6
